<?xml version="1.0" encoding="UTF-8" standalone="no"?>
<!-- Created with Inkscape (http://www.inkscape.org/) -->

<svg
   xmlns:dc="http://purl.org/dc/elements/1.1/"
   xmlns:cc="http://creativecommons.org/ns#"
   xmlns:rdf="http://www.w3.org/1999/02/22-rdf-syntax-ns#"
   xmlns:svg="http://www.w3.org/2000/svg"
   xmlns="http://www.w3.org/2000/svg"
   xmlns:sodipodi="http://sodipodi.sourceforge.net/DTD/sodipodi-0.dtd"
   xmlns:inkscape="http://www.inkscape.org/namespaces/inkscape"
   version="1.1"
   id="svg2"
   xml:space="preserve"
   width="280.5"
   height="280.49866"
   viewBox="0 0 280.5 280.49865"
   sodipodi:docname="app-dark.svg"
   inkscape:version="0.92.5 (2060ec1f9f, 2020-04-08)"><metadata
     id="metadata8"><rdf:RDF><cc:Work
         rdf:about=""><dc:format>image/svg+xml</dc:format><dc:type
           rdf:resource="http://purl.org/dc/dcmitype/StillImage" /><dc:title></dc:title></cc:Work></rdf:RDF></metadata><defs
     id="defs6" /><sodipodi:namedview
     pagecolor="#ffffff"
     bordercolor="#666666"
     borderopacity="1"
     objecttolerance="10"
     gridtolerance="10"
     guidetolerance="10"
     inkscape:pageopacity="0"
     inkscape:pageshadow="2"
     inkscape:window-width="1920"
     inkscape:window-height="1051"
     id="namedview4"
     showgrid="false"
     inkscape:zoom="0.417193"
     inkscape:cx="-698.29506"
     inkscape:cy="275.52407"
     inkscape:window-x="0"
     inkscape:window-y="-37"
     inkscape:window-maximized="1"
     inkscape:current-layer="g12" /><g
     id="g10"
     inkscape:groupmode="layer"
     inkscape:label="ink_ext_XXXXXX"
     transform="matrix(1.3333333,0,0,-1.3333333,-844.09598,756.62665)"><g
       id="g12"
       transform="scale(0.1)"><path
         d="m 7382.59,4099.46 c 288.59,0 523.37,234.78 523.37,523.37 0,288.59 -234.78,523.38 -523.37,523.38 -288.58,0 -523.37,-234.79 -523.37,-523.38 0,-288.59 234.79,-523.37 523.37,-523.37"
         style="fill:#000000;fill-opacity:1;fill-rule:nonzero;stroke:none"
         id="path44"
         inkscape:connector-curvature="0" /><path
         d="m 7326.9,5383.07 c 0,-30.76 24.94,-55.69 55.69,-55.69 30.76,0 55.7,24.93 55.7,55.69 v 235.94 c 0,30.75 -24.94,55.69 -55.7,55.69 -30.75,0 -55.69,-24.94 -55.69,-55.69 v -235.94"
         style="fill:#000000;fill-opacity:1;fill-rule:nonzero;stroke:none"
         id="path108"
         inkscape:connector-curvature="0" /><path
         d="m 7326.9,3862.6 v -235.94 c 0,-30.76 24.94,-55.7 55.69,-55.7 30.76,0 55.7,24.94 55.7,55.7 v 235.94 c 0,30.75 -24.94,55.69 -55.7,55.69 -30.75,0 -55.69,-24.94 -55.69,-55.69"
         style="fill:#000000;fill-opacity:1;fill-rule:nonzero;stroke:none"
         id="path110"
         inkscape:connector-curvature="0" /><path
         d="m 7002.52,5225.51 c 9.46,0 19.03,2.41 27.8,7.47 26.64,15.38 35.77,49.45 20.39,76.09 l -117.97,204.32 c -15.38,26.64 -49.45,35.77 -76.08,20.39 -26.64,-15.38 -35.77,-49.44 -20.39,-76.08 l 117.97,-204.33 c 10.31,-17.87 29.03,-27.86 48.28,-27.86"
         style="fill:#000000;fill-opacity:1;fill-rule:nonzero;stroke:none"
         id="path112"
         inkscape:connector-curvature="0" /><path
         d="m 7734.86,4012.68 c -26.64,-15.38 -35.76,-49.44 -20.39,-76.08 l 117.98,-204.33 c 10.31,-17.86 29.03,-27.85 48.28,-27.85 9.45,0 19.03,2.4 27.8,7.47 26.64,15.38 35.77,49.44 20.39,76.08 l -117.97,204.33 c -15.38,26.63 -49.45,35.76 -76.09,20.38"
         style="fill:#000000;fill-opacity:1;fill-rule:nonzero;stroke:none"
         id="path114"
         inkscape:connector-curvature="0" /><path
         d="m 6471.64,5148.77 c -15.38,-26.64 -6.25,-60.71 20.39,-76.09 l 204.33,-117.96 c 8.77,-5.07 18.35,-7.47 27.8,-7.47 19.24,0 37.97,9.99 48.28,27.85 15.38,26.64 6.25,60.71 -20.38,76.09 l -204.33,117.96 c -26.64,15.38 -60.71,6.26 -76.09,-20.38"
         style="fill:#000000;fill-opacity:1;fill-rule:nonzero;stroke:none"
         id="path116"
         inkscape:connector-curvature="0" /><path
         d="m 8273.15,4172.98 -204.32,117.97 c -26.63,15.37 -60.71,6.26 -76.09,-20.39 -15.38,-26.63 -6.25,-60.7 20.39,-76.08 l 204.33,-117.97 c 8.77,-5.06 18.34,-7.47 27.8,-7.47 19.24,0 37.97,9.99 48.28,27.86 15.38,26.63 6.25,60.7 -20.39,76.08"
         style="fill:#000000;fill-opacity:1;fill-rule:nonzero;stroke:none"
         id="path118"
         inkscape:connector-curvature="0" /><path
         d="m 6678.05,4622.83 c 0,30.76 -24.94,55.7 -55.7,55.7 h -235.93 c -30.76,0 -55.7,-24.94 -55.7,-55.7 0,-30.76 24.94,-55.7 55.7,-55.7 h 235.93 c 30.76,0 55.7,24.94 55.7,55.7"
         style="fill:#000000;fill-opacity:1;fill-rule:nonzero;stroke:none"
         id="path120"
         inkscape:connector-curvature="0" /><path
         d="m 8378.77,4678.53 h -235.94 c -30.76,0 -55.7,-24.94 -55.7,-55.7 0,-30.76 24.94,-55.7 55.7,-55.7 h 235.94 c 30.76,0 55.7,24.94 55.7,55.7 0,30.76 -24.94,55.7 -55.7,55.7"
         style="fill:#000000;fill-opacity:1;fill-rule:nonzero;stroke:none"
         id="path122"
         inkscape:connector-curvature="0" /><path
         d="m 6696.36,4290.95 -204.33,-117.97 c -26.64,-15.38 -35.77,-49.45 -20.39,-76.08 10.32,-17.87 29.04,-27.86 48.29,-27.86 9.45,0 19.03,2.41 27.8,7.47 l 204.33,117.97 c 26.63,15.38 35.76,49.45 20.38,76.08 -15.38,26.65 -49.45,35.77 -76.08,20.39"
         style="fill:#000000;fill-opacity:1;fill-rule:nonzero;stroke:none"
         id="path124"
         inkscape:connector-curvature="0" /><path
         d="m 8217.46,5169.15 -204.33,-117.96 c -26.64,-15.38 -35.77,-49.45 -20.39,-76.09 10.32,-17.86 29.04,-27.85 48.29,-27.85 9.45,0 19.03,2.4 27.8,7.47 l 204.32,117.96 c 26.64,15.38 35.77,49.45 20.39,76.09 -15.38,26.64 -49.45,35.76 -76.08,20.38"
         style="fill:#000000;fill-opacity:1;fill-rule:nonzero;stroke:none"
         id="path126"
         inkscape:connector-curvature="0" /><path
         d="m 6954.24,3992.3 -117.97,-204.33 c -15.38,-26.64 -6.25,-60.71 20.39,-76.08 8.77,-5.07 18.35,-7.47 27.8,-7.47 19.24,0 37.97,9.99 48.28,27.85 l 117.97,204.33 c 15.38,26.64 6.25,60.71 -20.39,76.08 -26.63,15.38 -60.7,6.26 -76.08,-20.38"
         style="fill:#000000;fill-opacity:1;fill-rule:nonzero;stroke:none"
         id="path128"
         inkscape:connector-curvature="0" /><path
         d="m 7734.86,5232.98 c 8.77,-5.06 18.35,-7.47 27.8,-7.47 19.25,0 37.97,9.99 48.29,27.86 l 117.97,204.33 c 15.38,26.64 6.25,60.7 -20.39,76.08 -26.63,15.37 -60.71,6.25 -76.08,-20.39 l -117.98,-204.32 c -15.37,-26.64 -6.25,-60.7 20.39,-76.09"
         style="fill:#000000;fill-opacity:1;fill-rule:nonzero;stroke:none"
         id="path130"
         inkscape:connector-curvature="0" /></g></g></svg>