<?xml version="1.0" encoding="UTF-8" standalone="no"?>
<!-- Created with Inkscape (http://www.inkscape.org/) -->

<svg
   xmlns:dc="http://purl.org/dc/elements/1.1/"
   xmlns:cc="http://creativecommons.org/ns#"
   xmlns:rdf="http://www.w3.org/1999/02/22-rdf-syntax-ns#"
   xmlns:svg="http://www.w3.org/2000/svg"
   xmlns="http://www.w3.org/2000/svg"
   xmlns:sodipodi="http://sodipodi.sourceforge.net/DTD/sodipodi-0.dtd"
   xmlns:inkscape="http://www.inkscape.org/namespaces/inkscape"
   version="1.1"
   id="svg2"
   xml:space="preserve"
   width="294.71332"
   height="189.15866"
   viewBox="0 0 294.71332 189.15866"
   sodipodi:docname="cloud-cloud.svg"
   inkscape:version="0.92.5 (2060ec1f9f, 2020-04-08)"><metadata
     id="metadata8"><rdf:RDF><cc:Work
         rdf:about=""><dc:format>image/svg+xml</dc:format><dc:type
           rdf:resource="http://purl.org/dc/dcmitype/StillImage" /><dc:title /></cc:Work></rdf:RDF></metadata><defs
     id="defs6" /><sodipodi:namedview
     pagecolor="#ffffff"
     bordercolor="#666666"
     borderopacity="1"
     objecttolerance="10"
     gridtolerance="10"
     guidetolerance="10"
     inkscape:pageopacity="0"
     inkscape:pageshadow="2"
     inkscape:window-width="1920"
     inkscape:window-height="1051"
     id="namedview4"
     showgrid="false"
     inkscape:zoom="0.417193"
     inkscape:cx="106.85312"
     inkscape:cy="0.44542158"
     inkscape:window-x="0"
     inkscape:window-y="-37"
     inkscape:window-maximized="1"
     inkscape:current-layer="g12" /><g
     id="g10"
     inkscape:groupmode="layer"
     inkscape:label="ink_ext_XXXXXX"
     transform="matrix(1.3333333,0,0,-1.3333333,-836.98931,1472.4933)"><g
       id="g12"
       transform="scale(0.1)"><path
         d="m 7095.27,10150.1 c 0,218.9 198.07,397.1 441.52,397.1 52.59,0 103.58,-8.1 152.11,-24.2 50.26,51.5 115.61,88.6 187.81,107.7 -64.32,129.9 -198.91,216.2 -347.41,216.2 -31.58,0 -63.05,-3.9 -93.54,-11.4 -22.51,-5.6 -46.13,3.3 -59.28,22.4 -80.09,116.4 -212.06,185.8 -353.04,185.8 -107.2,0 -209.78,-39.8 -288.83,-112 -78.56,-71.8 -127.38,-169.5 -137.46,-274.9 -1.86,-19.5 -13.83,-36.6 -31.52,-45 -5.16,-2.5 -10.33,-5.1 -15.37,-7.9 -4.65,-2.6 -9.64,-4.5 -14.83,-5.7 -72.12,-16.1 -137.62,-56.6 -184.45,-114.1 -48.13,-59.1 -73.56,-130.6 -73.56,-206.8 0,-181.4 148.4,-328.92 330.82,-328.92 h 397.21 c 10.95,67.72 41.89,131.42 90.23,184.72 -0.27,5.7 -0.41,11.3 -0.41,17"
         style="fill:#61c9e7;fill-opacity:1;fill-rule:nonzero;stroke:none"
         id="path18"
         inkscape:connector-curvature="0" /><path
         d="m 8296.95,10140.7 c -28.9,10.5 -43.86,42.4 -33.43,71.3 8.57,23.8 12.92,48.5 12.92,73.6 0,105.7 -77.06,196.2 -185.25,231.8 -31.86,10.5 -66.38,16.4 -102.46,16.4 -18.89,0 -37.5,-1.7 -55.65,-4.8 -74.28,-12.6 -140.56,-50.2 -183.72,-105.9 -15.56,-20 -42.72,-27.1 -66.04,-17 -45.77,19.7 -95.07,29.7 -146.53,29.7 -182.03,0 -330.12,-128.2 -330.12,-285.7 0,-10.1 0.64,-20.5 1.91,-30.8 2.16,-17.4 -4.02,-34.8 -16.68,-46.9 -36.83,-35.5 -61.7,-78.23 -72.86,-124.02 -4.39,-18.01 -6.72,-36.48 -6.72,-55.17 0,-19.28 2.42,-38.08 6.92,-56.22 29.99,-120.98 154.62,-211.98 303.44,-211.98 h 754.74 c 171.12,0 310.35,120.32 310.35,268.2 0,108.39 -74.9,205.59 -190.82,247.49"
         style="fill:#4492a8;fill-opacity:1;fill-rule:nonzero;stroke:none"
         id="path98"
         inkscape:connector-curvature="0" /></g></g></svg>