<?xml version="1.0" encoding="UTF-8" standalone="no"?>
<!-- Created with Inkscape (http://www.inkscape.org/) -->

<svg
   xmlns:dc="http://purl.org/dc/elements/1.1/"
   xmlns:cc="http://creativecommons.org/ns#"
   xmlns:rdf="http://www.w3.org/1999/02/22-rdf-syntax-ns#"
   xmlns:svg="http://www.w3.org/2000/svg"
   xmlns="http://www.w3.org/2000/svg"
   xmlns:sodipodi="http://sodipodi.sourceforge.net/DTD/sodipodi-0.dtd"
   xmlns:inkscape="http://www.inkscape.org/namespaces/inkscape"
   version="1.1"
   id="svg2"
   xml:space="preserve"
   width="251.87599"
   height="220.39732"
   viewBox="0 0 251.87599 220.39732"
   sodipodi:docname="cloud-dots.svg"
   inkscape:version="0.92.5 (2060ec1f9f, 2020-04-08)"><metadata
     id="metadata8"><rdf:RDF><cc:Work
         rdf:about=""><dc:format>image/svg+xml</dc:format><dc:type
           rdf:resource="http://purl.org/dc/dcmitype/StillImage" /><dc:title /></cc:Work></rdf:RDF></metadata><defs
     id="defs6" /><sodipodi:namedview
     pagecolor="#ffffff"
     bordercolor="#666666"
     borderopacity="1"
     objecttolerance="10"
     gridtolerance="10"
     guidetolerance="10"
     inkscape:pageopacity="0"
     inkscape:pageshadow="2"
     inkscape:window-width="1920"
     inkscape:window-height="1051"
     id="namedview4"
     showgrid="false"
     inkscape:zoom="0.417193"
     inkscape:cx="-422.22418"
     inkscape:cy="-111.61852"
     inkscape:window-x="0"
     inkscape:window-y="-37"
     inkscape:window-maximized="1"
     inkscape:current-layer="g12" /><g
     id="g10"
     inkscape:groupmode="layer"
     inkscape:label="ink_ext_XXXXXX"
     transform="matrix(1.3333333,0,0,-1.3333333,-1239.1773,1110.0346)"><g
       id="g12"
       transform="scale(0.1)"><path
         d="m 9648.33,7155.98 h 1180.07 c 195.5,0 354.5,158.13 354.5,352.49 0,110.6 -50.7,212.67 -139.2,280.03 -9.5,7.25 -16.4,17.35 -19.8,28.84 -50.9,176.04 -214.6,298.99 -398.1,298.99 -33.8,0 -67.5,-4.1 -100.1,-12.19 -22.5,-5.57 -46.1,3.37 -59.3,22.48 -85.6,124.38 -226.7,198.64 -377.4,198.64 -114.65,0 -224.33,-42.55 -308.86,-119.82 -84,-76.79 -136.2,-181.18 -146.97,-293.95 -1.87,-19.5 -13.84,-36.59 -31.53,-45.01 -5.51,-2.61 -11.06,-5.46 -16.5,-8.47 -4.65,-2.57 -9.64,-4.46 -14.82,-5.62 -77.28,-17.24 -147.48,-60.68 -197.66,-122.3 -51.57,-63.32 -78.83,-139.95 -78.83,-221.62 0,-194.36 159.03,-352.49 354.5,-352.49"
         style="fill:#61c9e7;fill-opacity:1;fill-rule:nonzero;stroke:none"
         id="path28"
         inkscape:connector-curvature="0" /><path
         d="m 9653.79,6923.88 c -69.48,0 -125.8,-56.32 -125.8,-125.8 0,-69.48 56.32,-125.8 125.8,-125.8 69.48,0 125.8,56.32 125.8,125.8 0,69.48 -56.32,125.8 -125.8,125.8"
         style="fill:#61c9e7;fill-opacity:1;fill-rule:nonzero;stroke:none"
         id="path150"
         inkscape:connector-curvature="0" /><path
         d="m 10356.9,6798.08 c 0,69.48 -56.4,125.8 -125.8,125.8 -69.5,0 -125.8,-56.32 -125.8,-125.8 0,-69.48 56.3,-125.8 125.8,-125.8 69.4,0 125.8,56.32 125.8,125.8"
         style="fill:#61c9e7;fill-opacity:1;fill-rule:nonzero;stroke:none"
         id="path152"
         inkscape:connector-curvature="0" /><path
         d="m 10902.3,6798.08 c 0,69.48 -56.3,125.8 -125.8,125.8 -69.4,0 -125.8,-56.32 -125.8,-125.8 0,-69.48 56.4,-125.8 125.8,-125.8 69.5,0 125.8,56.32 125.8,125.8"
         style="fill:#61c9e7;fill-opacity:1;fill-rule:nonzero;stroke:none"
         id="path154"
         inkscape:connector-curvature="0" /></g></g></svg>