<?xml version="1.0" encoding="UTF-8" standalone="no"?>
<!-- Created with Inkscape (http://www.inkscape.org/) -->

<svg
   xmlns:dc="http://purl.org/dc/elements/1.1/"
   xmlns:cc="http://creativecommons.org/ns#"
   xmlns:rdf="http://www.w3.org/1999/02/22-rdf-syntax-ns#"
   xmlns:svg="http://www.w3.org/2000/svg"
   xmlns="http://www.w3.org/2000/svg"
   xmlns:sodipodi="http://sodipodi.sourceforge.net/DTD/sodipodi-0.dtd"
   xmlns:inkscape="http://www.inkscape.org/namespaces/inkscape"
   version="1.1"
   id="svg2"
   xml:space="preserve"
   width="254.43599"
   height="256.38412"
   viewBox="0 0 254.436 256.38413"
   sodipodi:docname="fog.svg"
   inkscape:version="0.92.5 (2060ec1f9f, 2020-04-08)"><metadata
     id="metadata8"><rdf:RDF><cc:Work
         rdf:about=""><dc:format>image/svg+xml</dc:format><dc:type
           rdf:resource="http://purl.org/dc/dcmitype/StillImage" /><dc:title /></cc:Work></rdf:RDF></metadata><defs
     id="defs6" /><sodipodi:namedview
     pagecolor="#ffffff"
     bordercolor="#666666"
     borderopacity="1"
     objecttolerance="10"
     gridtolerance="10"
     guidetolerance="10"
     inkscape:pageopacity="0"
     inkscape:pageshadow="2"
     inkscape:window-width="1920"
     inkscape:window-height="1051"
     id="namedview4"
     showgrid="false"
     inkscape:zoom="0.417193"
     inkscape:cx="398.51721"
     inkscape:cy="601.42547"
     inkscape:window-x="0"
     inkscape:window-y="-37"
     inkscape:window-maximized="1"
     inkscape:current-layer="g12" /><g
     id="g10"
     inkscape:groupmode="layer"
     inkscape:label="ink_ext_XXXXXX"
     transform="matrix(1.3333333,0,0,-1.3333333,-477.63865,353.87732)"><g
       id="g12"
       transform="scale(0.1)"><path
         d="m 5332.15,2117.32 c -9.51,7.24 -16.44,17.35 -19.76,28.83 -50.94,176.04 -214.65,298.99 -398.12,298.99 -33.79,0 -67.46,-4.1 -100.09,-12.19 -22.51,-5.58 -46.13,3.38 -59.28,22.48 -85.62,124.39 -226.74,198.65 -377.47,198.65 -114.62,0 -224.3,-42.56 -308.83,-119.83 -84.01,-76.79 -136.2,-181.18 -146.98,-293.95 -1.86,-19.5 -13.83,-36.59 -31.52,-45 -5.52,-2.62 -11.07,-5.48 -16.5,-8.48 -4.64,-2.57 -9.63,-4.46 -14.82,-5.62 -77.28,-17.25 -147.48,-60.68 -197.66,-122.3 -51.57,-63.3 -78.83,-140 -78.83,-221.6 0,-194.4 159.03,-352.5 354.5,-352.5 h 1180.07 c 195.47,0 354.49,158.1 354.49,352.5 0,110.6 -50.74,212.65 -139.2,280.02"
         style="fill:#61c9e7;fill-opacity:1;fill-rule:nonzero;stroke:none"
         id="path30"
         inkscape:connector-curvature="0" /><path
         d="m 5317.27,1244.8 c 0,30.8 -24.94,55.7 -55.7,55.7 H 3798.84 c -30.76,0 -55.69,-24.9 -55.69,-55.7 0,-30.7 24.93,-55.7 55.69,-55.7 h 1462.73 c 30.76,0 55.7,25 55.7,55.7"
         style="fill:#61c9e7;fill-opacity:1;fill-rule:nonzero;stroke:none"
         id="path162"
         inkscape:connector-curvature="0" /><path
         d="M 5180.98,842.602 H 3718.26 c -30.76,0 -55.7,-25 -55.7,-55.704 0,-30.796 24.94,-55.699 55.7,-55.699 h 1462.72 c 30.76,0 55.7,24.903 55.7,55.699 0,30.704 -24.94,55.704 -55.7,55.704"
         style="fill:#61c9e7;fill-opacity:1;fill-rule:nonzero;stroke:none"
         id="path164"
         inkscape:connector-curvature="0" /><path
         d="m 4049.47,1068.4 c -30.76,0 -55.7,-24.9 -55.7,-55.7 0,-30.7 24.94,-55.7 55.7,-55.7 h 536.06 c 30.76,0 55.69,25 55.69,55.7 0,30.8 -24.93,55.7 -55.69,55.7 h -536.06"
         style="fill:#61c9e7;fill-opacity:1;fill-rule:nonzero;stroke:none"
         id="path166"
         inkscape:connector-curvature="0" /><path
         d="m 5434.86,1068.4 h -536.05 c -30.76,0 -55.7,-24.9 -55.7,-55.7 0,-30.7 24.94,-55.7 55.7,-55.7 h 536.05 c 30.76,0 55.7,25 55.7,55.7 0,30.8 -24.94,55.7 -55.7,55.7"
         style="fill:#61c9e7;fill-opacity:1;fill-rule:nonzero;stroke:none"
         id="path168"
         inkscape:connector-curvature="0" /></g></g></svg>