<?xml version="1.0" encoding="UTF-8" standalone="no"?>
<!-- Created with Inkscape (http://www.inkscape.org/) -->

<svg
   xmlns:dc="http://purl.org/dc/elements/1.1/"
   xmlns:cc="http://creativecommons.org/ns#"
   xmlns:rdf="http://www.w3.org/1999/02/22-rdf-syntax-ns#"
   xmlns:svg="http://www.w3.org/2000/svg"
   xmlns="http://www.w3.org/2000/svg"
   xmlns:sodipodi="http://sodipodi.sourceforge.net/DTD/sodipodi-0.dtd"
   xmlns:inkscape="http://www.inkscape.org/namespaces/inkscape"
   version="1.1"
   id="svg2"
   xml:space="preserve"
   width="318.86533"
   height="166.86"
   viewBox="0 0 318.86533 166.86"
   sodipodi:docname="half-sun.svg"
   inkscape:version="0.92.5 (2060ec1f9f, 2020-04-08)"><metadata
     id="metadata8"><rdf:RDF><cc:Work
         rdf:about=""><dc:format>image/svg+xml</dc:format><dc:type
           rdf:resource="http://purl.org/dc/dcmitype/StillImage" /><dc:title /></cc:Work></rdf:RDF></metadata><defs
     id="defs6" /><sodipodi:namedview
     pagecolor="#ffffff"
     bordercolor="#666666"
     borderopacity="1"
     objecttolerance="10"
     gridtolerance="10"
     guidetolerance="10"
     inkscape:pageopacity="0"
     inkscape:pageshadow="2"
     inkscape:window-width="1920"
     inkscape:window-height="1051"
     id="namedview4"
     showgrid="false"
     inkscape:zoom="0.417193"
     inkscape:cx="52.314696"
     inkscape:cy="380.96153"
     inkscape:window-x="0"
     inkscape:window-y="-37"
     inkscape:window-maximized="1"
     inkscape:current-layer="g12" /><g
     id="g10"
     inkscape:groupmode="layer"
     inkscape:label="ink_ext_XXXXXX"
     transform="matrix(1.3333333,0,0,-1.3333333,-1205.6813,699.80798)"><g
       id="g12"
       transform="scale(0.1)"><path
         d="m 10238.4,4659.81 c -315.97,0 -576.3,-242.61 -604.51,-551.31 h 1208.91 c -28.2,308.7 -288.5,551.31 -604.4,551.31"
         style="fill:#dec60f;fill-opacity:1;fill-rule:nonzero;stroke:none"
         id="path32"
         inkscape:connector-curvature="0" /><path
         d="m 10182.7,5192.86 v -270.01 c 0,-30.76 24.9,-55.7 55.7,-55.7 30.7,0 55.7,24.94 55.7,55.7 v 270.01 c 0,30.76 -25,55.7 -55.7,55.7 -30.8,0 -55.7,-24.94 -55.7,-55.7"
         style="fill:#dec60f;fill-opacity:1;fill-rule:nonzero;stroke:none"
         id="path132"
         inkscape:connector-curvature="0" /><path
         d="m 9640.49,5088.36 c -26.64,-15.38 -35.77,-49.45 -20.39,-76.08 l 135.01,-233.84 c 10.31,-17.87 29.03,-27.86 48.28,-27.86 9.45,0 19.03,2.41 27.8,7.47 26.64,15.38 35.77,49.45 20.39,76.08 l -135,233.84 c -15.38,26.64 -49.45,35.77 -76.09,20.39"
         style="fill:#dec60f;fill-opacity:1;fill-rule:nonzero;stroke:none"
         id="path134"
         inkscape:connector-curvature="0" /><path
         d="m 9512.73,4536.06 -233.83,135.01 c -26.63,15.37 -60.71,6.25 -76.09,-20.39 -15.38,-26.64 -6.25,-60.71 20.39,-76.08 l 233.84,-135.01 c 8.77,-5.06 18.35,-7.47 27.8,-7.47 19.24,0 37.97,9.99 48.28,27.86 15.38,26.64 6.25,60.7 -20.39,76.08"
         style="fill:#dec60f;fill-opacity:1;fill-rule:nonzero;stroke:none"
         id="path136"
         inkscape:connector-curvature="0" /><path
         d="m 9424.02,4052.8 c 0,30.76 -24.94,55.7 -55.7,55.7 h -270.01 c -30.76,0 -55.7,-24.94 -55.7,-55.7 0,-30.76 24.94,-55.69 55.7,-55.69 h 270.01 c 30.76,0 55.7,24.93 55.7,55.69"
         style="fill:#dec60f;fill-opacity:1;fill-rule:nonzero;stroke:none"
         id="path138"
         inkscape:connector-curvature="0" /><path
         d="m 11378.4,4108.5 h -270 c -30.7,0 -55.7,-24.94 -55.7,-55.7 0,-30.76 25,-55.69 55.7,-55.69 h 270 c 30.8,0 55.7,24.93 55.7,55.69 0,30.76 -24.9,55.7 -55.7,55.7"
         style="fill:#dec60f;fill-opacity:1;fill-rule:nonzero;stroke:none"
         id="path140"
         inkscape:connector-curvature="0" /><path
         d="m 11019.7,4439.59 233.8,135.01 c 26.7,15.37 35.8,49.44 20.4,76.08 -15.4,26.64 -49.4,35.77 -76.1,20.39 L 10964,4536.06 c -26.6,-15.38 -35.8,-49.44 -20.4,-76.08 10.3,-17.87 29,-27.86 48.3,-27.86 9.4,0 19,2.41 27.8,7.47"
         style="fill:#dec60f;fill-opacity:1;fill-rule:nonzero;stroke:none"
         id="path142"
         inkscape:connector-curvature="0" /><path
         d="m 10645.5,4758.05 c 8.8,-5.06 18.4,-7.47 27.8,-7.47 19.3,0 38,9.99 48.3,27.86 l 135,233.84 c 15.4,26.63 6.3,60.7 -20.4,76.08 -26.6,15.37 -60.7,6.26 -76,-20.39 l -135,-233.84 c -15.4,-26.63 -6.3,-60.7 20.3,-76.08"
         style="fill:#dec60f;fill-opacity:1;fill-rule:nonzero;stroke:none"
         id="path144"
         inkscape:connector-curvature="0" /></g></g></svg>