<?xml version="1.0" encoding="UTF-8" standalone="no"?>
<!-- Created with Inkscape (http://www.inkscape.org/) -->

<svg
   xmlns:dc="http://purl.org/dc/elements/1.1/"
   xmlns:cc="http://creativecommons.org/ns#"
   xmlns:rdf="http://www.w3.org/1999/02/22-rdf-syntax-ns#"
   xmlns:svg="http://www.w3.org/2000/svg"
   xmlns="http://www.w3.org/2000/svg"
   xmlns:sodipodi="http://sodipodi.sourceforge.net/DTD/sodipodi-0.dtd"
   xmlns:inkscape="http://www.inkscape.org/namespaces/inkscape"
   version="1.1"
   id="svg2"
   xml:space="preserve"
   width="251.87599"
   height="258.63998"
   viewBox="0 0 251.87599 258.63998"
   sodipodi:docname="heavy-rain.svg"
   inkscape:version="0.92.5 (2060ec1f9f, 2020-04-08)"><metadata
     id="metadata8"><rdf:RDF><cc:Work
         rdf:about=""><dc:format>image/svg+xml</dc:format><dc:type
           rdf:resource="http://purl.org/dc/dcmitype/StillImage" /><dc:title /></cc:Work></rdf:RDF></metadata><defs
     id="defs6" /><sodipodi:namedview
     pagecolor="#ffffff"
     bordercolor="#666666"
     borderopacity="1"
     objecttolerance="10"
     gridtolerance="10"
     guidetolerance="10"
     inkscape:pageopacity="0"
     inkscape:pageshadow="2"
     inkscape:window-width="1920"
     inkscape:window-height="1051"
     id="namedview4"
     showgrid="false"
     inkscape:zoom="0.417193"
     inkscape:cx="245.11512"
     inkscape:cy="-15.848449"
     inkscape:window-x="0"
     inkscape:window-y="-37"
     inkscape:window-maximized="1"
     inkscape:current-layer="g12" /><g
     id="g10"
     inkscape:groupmode="layer"
     inkscape:label="ink_ext_XXXXXX"
     transform="matrix(1.3333333,0,0,-1.3333333,-487.94399,1110.0346)"><g
       id="g12"
       transform="scale(0.1)"><path
         d="m 5548.65,7508.47 c 0,110.6 -50.74,212.67 -139.21,280.03 -9.51,7.25 -16.44,17.35 -19.76,28.84 -50.93,176.04 -214.64,298.99 -398.11,298.99 -33.8,0 -67.47,-4.1 -100.1,-12.19 -22.51,-5.57 -46.13,3.37 -59.28,22.48 -85.62,124.38 -226.73,198.64 -377.47,198.64 -114.62,0 -224.3,-42.55 -308.83,-119.82 -84,-76.79 -136.2,-181.18 -146.97,-293.95 -1.87,-19.5 -13.84,-36.59 -31.53,-45 -5.52,-2.63 -11.07,-5.48 -16.5,-8.48 -4.64,-2.57 -9.63,-4.46 -14.82,-5.62 -77.28,-17.24 -147.48,-60.68 -197.66,-122.3 -51.57,-63.32 -78.83,-139.95 -78.83,-221.62 0,-194.36 159.03,-352.49 354.5,-352.49 h 1180.07 c 195.47,0 354.5,158.13 354.5,352.49"
         style="fill:#4492a8;fill-opacity:1;fill-rule:nonzero;stroke:none"
         id="path22"
         inkscape:connector-curvature="0" /><path
         d="m 4159.64,6649.35 c 5.41,0 10.91,0.79 16.34,2.46 29.41,9.01 45.95,40.16 36.93,69.57 l -67.06,218.82 c -9.01,29.41 -40.16,45.95 -69.57,36.93 -29.41,-9.01 -45.94,-40.16 -36.93,-69.57 l 67.06,-218.82 c 7.35,-23.98 29.4,-39.39 53.23,-39.39"
         style="fill:#61c9e7;fill-opacity:1;fill-rule:nonzero;stroke:none"
         id="path56"
         inkscape:connector-curvature="0" /><path
         d="m 4465.25,6385.46 c 5.41,0 10.9,0.79 16.34,2.46 29.41,9.01 45.94,40.16 36.93,69.57 l -67.06,218.82 c -9.01,29.42 -40.15,45.95 -69.57,36.94 -29.41,-9.02 -45.95,-40.16 -36.94,-69.57 l 67.07,-218.83 c 7.34,-23.97 29.4,-39.39 53.23,-39.39"
         style="fill:#61c9e7;fill-opacity:1;fill-rule:nonzero;stroke:none"
         id="path58"
         inkscape:connector-curvature="0" /><path
         d="m 4853.83,6727.24 c -29.41,-9.01 -45.94,-40.16 -36.93,-69.57 l 67.06,-218.82 c 7.35,-23.98 29.4,-39.4 53.23,-39.4 5.41,0 10.91,0.8 16.34,2.47 29.41,9.01 45.95,40.16 36.93,69.57 l -67.06,218.82 c -9.01,29.41 -40.17,45.95 -69.57,36.93"
         style="fill:#61c9e7;fill-opacity:1;fill-rule:nonzero;stroke:none"
         id="path60"
         inkscape:connector-curvature="0" /><path
         d="m 4626.04,6649.35 c 5.4,0 10.9,0.79 16.34,2.46 29.41,9.01 45.94,40.16 36.93,69.57 l -67.06,218.82 c -9.01,29.41 -40.17,45.95 -69.57,36.93 -29.41,-9.01 -45.95,-40.16 -36.93,-69.57 l 67.06,-218.82 c 7.35,-23.98 29.4,-39.39 53.23,-39.39"
         style="fill:#61c9e7;fill-opacity:1;fill-rule:nonzero;stroke:none"
         id="path62"
         inkscape:connector-curvature="0" /><path
         d="m 5092.44,6649.35 c 5.4,0 10.9,0.79 16.34,2.46 29.41,9.01 45.94,40.16 36.93,69.57 l -67.06,218.82 c -9.01,29.41 -40.16,45.95 -69.57,36.93 -29.41,-9.01 -45.95,-40.16 -36.93,-69.57 l 67.06,-218.82 c 7.34,-23.98 29.4,-39.39 53.23,-39.39"
         style="fill:#61c9e7;fill-opacity:1;fill-rule:nonzero;stroke:none"
         id="path64"
         inkscape:connector-curvature="0" /></g></g></svg>