<?xml version="1.0" encoding="UTF-8" standalone="no"?>
<!-- Created with Inkscape (http://www.inkscape.org/) -->

<svg
   xmlns:dc="http://purl.org/dc/elements/1.1/"
   xmlns:cc="http://creativecommons.org/ns#"
   xmlns:rdf="http://www.w3.org/1999/02/22-rdf-syntax-ns#"
   xmlns:svg="http://www.w3.org/2000/svg"
   xmlns="http://www.w3.org/2000/svg"
   xmlns:sodipodi="http://sodipodi.sourceforge.net/DTD/sodipodi-0.dtd"
   xmlns:inkscape="http://www.inkscape.org/namespaces/inkscape"
   version="1.1"
   id="svg2"
   xml:space="preserve"
   width="251.87466"
   height="223.45467"
   viewBox="0 0 251.87466 223.45466"
   sodipodi:docname="light-rain.svg"
   inkscape:version="0.92.5 (2060ec1f9f, 2020-04-08)"><metadata
     id="metadata8"><rdf:RDF><cc:Work
         rdf:about=""><dc:format>image/svg+xml</dc:format><dc:type
           rdf:resource="http://purl.org/dc/dcmitype/StillImage" /><dc:title /></cc:Work></rdf:RDF></metadata><defs
     id="defs6" /><sodipodi:namedview
     pagecolor="#ffffff"
     bordercolor="#666666"
     borderopacity="1"
     objecttolerance="10"
     gridtolerance="10"
     guidetolerance="10"
     inkscape:pageopacity="0"
     inkscape:pageshadow="2"
     inkscape:window-width="1920"
     inkscape:window-height="1051"
     id="namedview4"
     showgrid="false"
     inkscape:zoom="0.417193"
     inkscape:cx="588.25032"
     inkscape:cy="37.65423"
     inkscape:window-x="0"
     inkscape:window-y="-37"
     inkscape:window-maximized="1"
     inkscape:current-layer="g12" /><g
     id="g10"
     inkscape:groupmode="layer"
     inkscape:label="ink_ext_XXXXXX"
     transform="matrix(1.3333333,0,0,-1.3333333,-96.869331,1110.0346)"><g
       id="g12"
       transform="scale(0.1)"><path
         d="m 1081.02,7155.98 h 1180.07 c 195.46,0 354.49,158.13 354.49,352.49 0,110.6 -50.74,212.67 -139.2,280.03 -9.51,7.25 -16.44,17.35 -19.76,28.84 -50.94,176.04 -214.65,298.99 -398.12,298.99 -33.79,0 -67.47,-4.1 -100.09,-12.19 -22.51,-5.57 -46.13,3.37 -59.28,22.48 -85.63,124.38 -226.74,198.64 -377.47,198.64 -114.63,0 -224.31,-42.55 -308.84,-119.82 -84,-76.79 -136.19,-181.18 -146.97,-293.95 -1.86,-19.5 -13.83,-36.59 -31.52,-45 -5.53,-2.63 -11.08,-5.48 -16.5,-8.48 -4.65,-2.57 -9.64,-4.46 -14.82,-5.62 -77.283,-17.24 -147.483,-60.68 -197.662,-122.3 -51.571,-63.32 -78.828,-139.95 -78.828,-221.62 0,-194.36 159.027,-352.49 354.5,-352.49"
         style="fill:#4492a8;fill-opacity:1;fill-rule:nonzero;stroke:none"
         id="path36"
         inkscape:connector-curvature="0" /><path
         d="m 1143.22,6977.13 c -29.41,-9.01 -45.95,-40.16 -36.93,-69.57 l 67.06,-218.82 c 7.34,-23.98 29.39,-39.39 53.23,-39.39 5.4,0 10.9,0.79 16.34,2.46 29.41,9.01 45.94,40.16 36.93,69.57 l -67.06,218.82 c -9.01,29.41 -40.16,45.95 -69.57,36.93"
         style="fill:#61c9e7;fill-opacity:1;fill-rule:nonzero;stroke:none"
         id="path50"
         inkscape:connector-curvature="0" /><path
         d="m 1609.62,6977.13 c -29.41,-9.01 -45.95,-40.16 -36.94,-69.57 l 67.06,-218.82 c 7.35,-23.98 29.4,-39.39 53.24,-39.39 5.4,0 10.9,0.79 16.34,2.46 29.41,9.01 45.94,40.16 36.93,69.57 l -67.06,218.82 c -9.02,29.41 -40.17,45.95 -69.57,36.93"
         style="fill:#61c9e7;fill-opacity:1;fill-rule:nonzero;stroke:none"
         id="path52"
         inkscape:connector-curvature="0" /><path
         d="m 2076.02,6977.13 c -29.41,-9.01 -45.95,-40.16 -36.94,-69.57 l 67.06,-218.82 c 7.35,-23.98 29.4,-39.39 53.24,-39.39 5.4,0 10.9,0.79 16.34,2.46 29.41,9.01 45.94,40.16 36.93,69.57 l -67.06,218.82 c -9.02,29.41 -40.16,45.95 -69.57,36.93"
         style="fill:#61c9e7;fill-opacity:1;fill-rule:nonzero;stroke:none"
         id="path54"
         inkscape:connector-curvature="0" /></g></g></svg>