<?xml version="1.0" encoding="UTF-8" standalone="no"?>
<!-- Created with Inkscape (http://www.inkscape.org/) -->

<svg
   xmlns:dc="http://purl.org/dc/elements/1.1/"
   xmlns:cc="http://creativecommons.org/ns#"
   xmlns:rdf="http://www.w3.org/1999/02/22-rdf-syntax-ns#"
   xmlns:svg="http://www.w3.org/2000/svg"
   xmlns="http://www.w3.org/2000/svg"
   xmlns:sodipodi="http://sodipodi.sourceforge.net/DTD/sodipodi-0.dtd"
   xmlns:inkscape="http://www.inkscape.org/namespaces/inkscape"
   version="1.1"
   id="svg2"
   xml:space="preserve"
   width="238.3044"
   height="228.57001"
   viewBox="0 0 238.3044 228.57001"
   sodipodi:docname="moon-cloud.svg"
   inkscape:version="0.92.5 (2060ec1f9f, 2020-04-08)"><metadata
     id="metadata8"><rdf:RDF><cc:Work
         rdf:about=""><dc:format>image/svg+xml</dc:format><dc:type
           rdf:resource="http://purl.org/dc/dcmitype/StillImage" /><dc:title /></cc:Work></rdf:RDF></metadata><defs
     id="defs6" /><sodipodi:namedview
     pagecolor="#ffffff"
     bordercolor="#666666"
     borderopacity="1"
     objecttolerance="10"
     gridtolerance="10"
     guidetolerance="10"
     inkscape:pageopacity="0"
     inkscape:pageshadow="2"
     inkscape:window-width="1920"
     inkscape:window-height="1051"
     id="namedview4"
     showgrid="false"
     inkscape:zoom="1.18"
     inkscape:cx="-187.51209"
     inkscape:cy="85.107304"
     inkscape:window-x="0"
     inkscape:window-y="-37"
     inkscape:window-maximized="1"
     inkscape:current-layer="g12" /><g
     id="g10"
     inkscape:groupmode="layer"
     inkscape:label="ink_ext_XXXXXX"
     transform="matrix(1.3333333,0,0,-1.3333333,-128.90653,347.52666)"><g
       id="g12"
       transform="scale(0.1)"><path
         d="m 1654.2164,2107.5475 -38.9,-145.2 138.91,57.4 126.06,-81.8 -11.7,149.8 116.81,94.6 -146.14,35.2 -53.86,140.3 -78.62,-128.1 -150.11,-7.8 97.55,-114.4"
         style="fill:#61c9e7;fill-opacity:1;fill-rule:nonzero;stroke:none"
         id="path146"
         inkscape:connector-curvature="0" /><path
         d="m 2292.77,2265.61 -57.5,77.28 -26.37,-92.64 -91.26,-30.79 79.95,-53.71 1.09,-96.32 75.79,59.45 91.93,-28.73 -33.11,90.45 55.73,78.56 -96.25,-3.55"
         style="fill:#61c9e7;fill-opacity:1;fill-rule:nonzero;stroke:none"
         id="path148"
         inkscape:connector-curvature="0" /><path
         d="m 2558.2469,1439.234 c -6.7701,5.1257 -11.7036,12.3159 -14.0671,20.5028 -36.2572,125.2947 -152.8027,212.8587 -283.4153,212.8587 -24.0623,0 -48.032,-2.9188 -71.2543,-8.6852 -16.0391,-3.9867 -32.84,2.4204 -42.2087,16.0178 -60.953,88.5606 -161.4095,141.3837 -268.7216,141.3837 -81.5982,0 -159.6796,-30.2558 -219.8567,-85.2859 -59.7997,-54.674 -96.961,-128.9966 -104.6353,-209.2991 -1.3241,-13.8821 -9.8456,-25.9844 -22.4392,-32.0356 -3.9225,-1.851 -7.8736,-3.8443 -11.7463,-5.98 -3.3104,-1.8509 -6.8628,-3.2035 -10.5504,-3.9866 -55.0158,-12.3159 -104.9913,-43.2125 -140.7145,-87.0656 -36.7128,-45.1346 -56.1193,-99.6663 -56.1193,-157.8287 0,-138.351 113.2138,-250.9241 252.3692,-250.9241 h 840.0942 c 139.1554,0 252.3692,112.5731 252.3692,250.9241 0,78.7363 -36.1219,151.4215 -99.1039,199.4037"
         style="fill:#61c9e7;fill-opacity:1;fill-rule:nonzero;stroke:none;stroke-width:193.46250484;stroke-linejoin:round;stroke-miterlimit:4;stroke-dasharray:none;stroke-opacity:0.07023411;paint-order:stroke fill markers"
         id="path42"
         inkscape:connector-curvature="0" /><path
         style="fill:#e1c014;fill-opacity:1;fill-rule:nonzero;stroke:none;stroke-width:0.99999994"
         d="m 1588.6193,2609.0339 c -26.09,-7.95 -51.8658,-17.1244 -77.2558,-27.5244 -446.56,-182.88 -661.08793,-694.9235 -478.2129,-1141.5235 46.0256,-112.3754 113.4014,-211.9186 197.7099,-294.331 -9.0519,30.7589 -14.0039,63.2025 -14.0039,96.7529 0,79.6793 27.5475,157.0993 77.7979,218.877 l 0.044,0.06 c 40.587,49.8238 93.9172,87.172 153.8819,108.501 -5.1192,11.297 -10.0685,22.6933 -14.795,34.2334 -81.7003,199.4985 -96.1104,414.9034 -41.6604,622.9234 36.65,139.99 104.5641,271.1212 196.4941,382.0312 z"
         id="path20"
         inkscape:connector-curvature="0"
         sodipodi:nodetypes="ccccscccccc" /></g></g></svg>