<?xml version="1.0" encoding="UTF-8" standalone="no"?>
<!-- Created with Inkscape (http://www.inkscape.org/) -->

<svg
   xmlns:dc="http://purl.org/dc/elements/1.1/"
   xmlns:cc="http://creativecommons.org/ns#"
   xmlns:rdf="http://www.w3.org/1999/02/22-rdf-syntax-ns#"
   xmlns:svg="http://www.w3.org/2000/svg"
   xmlns="http://www.w3.org/2000/svg"
   xmlns:sodipodi="http://sodipodi.sourceforge.net/DTD/sodipodi-0.dtd"
   xmlns:inkscape="http://www.inkscape.org/namespaces/inkscape"
   version="1.1"
   id="svg2"
   xml:space="preserve"
   width="238.3044"
   height="228.57001"
   viewBox="0 0 238.3044 228.57001"
   sodipodi:docname="moon-small-cloud.svg"
   inkscape:version="0.92.5 (2060ec1f9f, 2020-04-08)"><metadata
     id="metadata8"><rdf:RDF><cc:Work
         rdf:about=""><dc:format>image/svg+xml</dc:format><dc:type
           rdf:resource="http://purl.org/dc/dcmitype/StillImage" /><dc:title /></cc:Work></rdf:RDF></metadata><defs
     id="defs6" /><sodipodi:namedview
     pagecolor="#ffffff"
     bordercolor="#666666"
     borderopacity="1"
     objecttolerance="10"
     gridtolerance="10"
     guidetolerance="10"
     inkscape:pageopacity="0"
     inkscape:pageshadow="2"
     inkscape:window-width="1920"
     inkscape:window-height="1051"
     id="namedview4"
     showgrid="false"
     inkscape:zoom="1.18"
     inkscape:cx="-189.207"
     inkscape:cy="88.497135"
     inkscape:window-x="0"
     inkscape:window-y="-37"
     inkscape:window-maximized="1"
     inkscape:current-layer="g12" /><g
     id="g10"
     inkscape:groupmode="layer"
     inkscape:label="ink_ext_XXXXXX"
     transform="matrix(1.3333333,0,0,-1.3333333,-128.90653,347.52666)"><g
       id="g12"
       transform="scale(0.1)"><path
         d="m 1705.0639,1840.5983 -38.9,-145.2 138.91,57.4 126.06,-81.8 -11.7,149.8 116.81,94.6 -146.14,35.2 -53.86,140.3 -78.62,-128.1 -150.11,-7.8 97.55,-114.4"
         style="fill:#61c9e7;fill-opacity:1;fill-rule:nonzero;stroke:none"
         id="path146"
         inkscape:connector-curvature="0" /><path
         d="m 2292.77,2265.61 -57.5,77.28 -26.37,-92.64 -91.26,-30.79 79.95,-53.71 1.09,-96.32 75.79,59.45 91.93,-28.73 -33.11,90.45 55.73,78.56 -96.25,-3.55"
         style="fill:#61c9e7;fill-opacity:1;fill-rule:nonzero;stroke:none"
         id="path148"
         inkscape:connector-curvature="0" /><path
         d="m 2622.5533,1259.5962 c -4.547,3.4425 -7.8605,8.2717 -9.4479,13.7703 -24.3514,84.1516 -102.6268,142.9622 -190.3502,142.9622 -16.1609,0 -32.2597,-1.9603 -47.8565,-5.8332 -10.7723,-2.6776 -22.0563,1.6256 -28.3486,10.758 -40.9379,59.48 -108.4075,94.9575 -180.4815,94.9575 -54.8038,0 -107.2456,-20.3207 -147.6623,-57.2805 -40.1633,-36.7207 -65.1219,-86.638 -70.2762,-140.5716 -0.8893,-9.3236 -6.6126,-17.4519 -15.0708,-21.516 -2.6345,-1.2432 -5.2882,-2.582 -7.8892,-4.0164 -2.2234,-1.2431 -4.6093,-2.1515 -7.086,-2.6775 -36.9502,-8.2717 -70.5153,-29.0228 -94.508,-58.4759 -24.6574,-30.3137 -37.6914,-66.9388 -37.6914,-106.0024 0,-92.9207 76.0377,-168.52815 169.4987,-168.52815 h 564.2324 c 93.4609,0 169.4987,75.60745 169.4987,168.52815 0,52.8816 -24.2606,101.6992 -66.5612,133.9255"
         style="fill:#61c9e7;fill-opacity:1;fill-rule:nonzero;stroke:none;stroke-width:129.93521118;stroke-linejoin:round;stroke-miterlimit:4;stroke-dasharray:none;stroke-opacity:1;paint-order:stroke fill markers"
         id="path42"
         inkscape:connector-curvature="0" /><path
         style="fill:#e1c014;fill-opacity:1;fill-rule:nonzero;stroke:none;stroke-width:0.99999994"
         d="m 1585.4107,2606.6926 c -26.09,-7.95 -51.8658,-17.1244 -77.2558,-27.5244 -446.56,-182.88 -661.08797,-694.9235 -478.2129,-1141.5235 88.59,-216.3 256.1089,-385.2009 471.7089,-475.50292 131.0457,-54.88095 270.3184,-76.71172 407.9737,-65.55172 -108.0021,20.56845 -190.8545,115.83214 -190.8545,229.32124 0,25.923 4.3857,51.4716 12.7002,75.6592 -132.7858,104.5663 -235.6797,240.9423 -300.8936,400.166 -81.7,199.5 -96.1101,414.9049 -41.6601,622.9249 36.65,139.99 104.5641,271.1212 196.4941,382.0312 z"
         id="path20"
         inkscape:connector-curvature="0"
         sodipodi:nodetypes="cccccscccc" /></g></g></svg>