<?xml version="1.0" encoding="UTF-8" standalone="no"?>
<!-- Created with Inkscape (http://www.inkscape.org/) -->

<svg
   xmlns:dc="http://purl.org/dc/elements/1.1/"
   xmlns:cc="http://creativecommons.org/ns#"
   xmlns:rdf="http://www.w3.org/1999/02/22-rdf-syntax-ns#"
   xmlns:svg="http://www.w3.org/2000/svg"
   xmlns="http://www.w3.org/2000/svg"
   xmlns:sodipodi="http://sodipodi.sourceforge.net/DTD/sodipodi-0.dtd"
   xmlns:inkscape="http://www.inkscape.org/namespaces/inkscape"
   version="1.1"
   id="svg2"
   xml:space="preserve"
   width="251.87466"
   height="236.67467"
   viewBox="0 0 251.87466 236.67466"
   sodipodi:docname="snow.svg"
   inkscape:version="0.92.5 (2060ec1f9f, 2020-04-08)"><metadata
     id="metadata8"><rdf:RDF><cc:Work
         rdf:about=""><dc:format>image/svg+xml</dc:format><dc:type
           rdf:resource="http://purl.org/dc/dcmitype/StillImage" /><dc:title /></cc:Work></rdf:RDF></metadata><defs
     id="defs6" /><sodipodi:namedview
     pagecolor="#ffffff"
     bordercolor="#666666"
     borderopacity="1"
     objecttolerance="10"
     gridtolerance="10"
     guidetolerance="10"
     inkscape:pageopacity="0"
     inkscape:pageshadow="2"
     inkscape:window-width="1920"
     inkscape:window-height="1051"
     id="namedview4"
     showgrid="false"
     inkscape:zoom="0.417193"
     inkscape:cx="-364.07068"
     inkscape:cy="-131.29573"
     inkscape:window-x="0"
     inkscape:window-y="-37"
     inkscape:window-maximized="1"
     inkscape:current-layer="g12" /><g
     id="g10"
     inkscape:groupmode="layer"
     inkscape:label="ink_ext_XXXXXX"
     transform="matrix(1.3333333,0,0,-1.3333333,-879.00531,1110.0346)"><g
       id="g12"
       transform="scale(0.1)"><path
         d="m 8342.4,7788.5 c -9.51,7.25 -16.44,17.35 -19.76,28.84 -50.94,176.04 -214.65,298.99 -398.12,298.99 -33.79,0 -67.47,-4.1 -100.09,-12.19 -22.48,-5.57 -46.13,3.37 -59.28,22.48 -85.63,124.38 -226.74,198.64 -377.47,198.64 -114.63,0 -224.31,-42.55 -308.83,-119.82 -84.01,-76.79 -136.2,-181.18 -146.98,-293.95 -1.86,-19.5 -13.84,-36.59 -31.53,-45.01 -5.51,-2.61 -11.05,-5.46 -16.5,-8.47 -4.64,-2.57 -9.63,-4.46 -14.82,-5.62 -77.27,-17.24 -147.47,-60.68 -197.65,-122.3 -51.57,-63.32 -78.83,-139.95 -78.83,-221.62 0,-194.36 159.03,-352.49 354.5,-352.49 H 8127.1 c 195.47,0 354.5,158.13 354.5,352.49 0,110.6 -50.74,212.67 -139.2,280.03"
         style="fill:#61c9e7;fill-opacity:1;fill-rule:nonzero;stroke:none"
         id="path26"
         inkscape:connector-curvature="0" /><path
         d="m 6909.6,6923.88 c -27.46,0 -49.73,-22.26 -49.73,-49.72 v -76.62 l -81.44,22.08 c -26.52,7.19 -53.82,-8.48 -61,-34.99 -7.18,-26.5 8.48,-53.81 34.98,-60.99 l 78.35,-21.24 -47.35,-72.98 c -14.95,-23.03 -8.39,-53.82 14.65,-68.77 8.36,-5.43 17.74,-8.02 27.01,-8.02 16.28,0 32.24,7.99 41.76,22.67 l 43.49,67.02 47.1,-70.12 c 9.6,-14.29 25.32,-22 41.32,-22 9.54,0 19.18,2.74 27.69,8.45 22.79,15.32 28.86,46.21 13.54,69.01 l -50.42,75.05 77.22,20.93 c 26.51,7.18 42.17,34.49 34.99,60.99 -7.18,26.51 -34.47,42.17 -61,34.99 l -81.44,-22.08 v 76.62 c 0,27.46 -22.26,49.72 -49.72,49.72"
         style="fill:#61c9e7;fill-opacity:1;fill-rule:nonzero;stroke:none"
         id="path156"
         inkscape:connector-curvature="0" /><path
         d="m 7537.07,6923.88 c -27.46,0 -49.72,-22.26 -49.72,-49.72 v -76.62 l -81.45,22.08 c -26.51,7.19 -53.81,-8.48 -60.99,-34.99 -7.19,-26.5 8.48,-53.81 34.98,-60.99 l 78.35,-21.24 -47.35,-72.98 c -14.95,-23.03 -8.39,-53.82 14.64,-68.77 8.37,-5.43 17.75,-8.02 27.02,-8.02 16.28,0 32.24,7.99 41.76,22.67 l 43.48,67.02 47.11,-70.12 c 9.6,-14.29 25.31,-22 41.32,-22 9.53,0 19.17,2.74 27.68,8.45 22.8,15.32 28.86,46.21 13.55,69.01 l -50.42,75.05 77.22,20.93 c 26.5,7.18 42.17,34.49 34.99,60.99 -7.19,26.51 -34.48,42.17 -61,34.99 l -81.45,-22.08 v 76.62 c 0,27.46 -22.26,49.72 -49.72,49.72"
         style="fill:#61c9e7;fill-opacity:1;fill-rule:nonzero;stroke:none"
         id="path158"
         inkscape:connector-curvature="0" /><path
         d="m 8164.55,6923.88 c -27.46,0 -49.72,-22.26 -49.72,-49.72 v -76.62 l -81.45,22.08 c -26.51,7.19 -53.81,-8.48 -61,-34.99 -7.18,-26.5 8.48,-53.81 34.99,-60.99 l 78.35,-21.24 -47.36,-72.98 c -14.94,-23.03 -8.39,-53.82 14.65,-68.77 8.36,-5.43 17.74,-8.02 27.02,-8.02 16.28,0 32.23,7.99 41.76,22.67 l 43.48,67.02 47.11,-70.12 c 9.6,-14.29 25.31,-22 41.32,-22 9.53,0 19.17,2.74 27.68,8.45 22.79,15.32 28.86,46.21 13.54,69.01 l -50.42,75.05 77.23,20.93 c 26.5,7.18 42.17,34.49 34.98,60.99 -7.18,26.51 -34.47,42.17 -61,34.99 l -81.44,-22.08 v 76.62 c 0,27.46 -22.26,49.72 -49.72,49.72"
         style="fill:#61c9e7;fill-opacity:1;fill-rule:nonzero;stroke:none"
         id="path160"
         inkscape:connector-curvature="0" /></g></g></svg>