<?xml version="1.0" encoding="UTF-8" standalone="no"?>
<!-- Created with Inkscape (http://www.inkscape.org/) -->

<svg
   xmlns:dc="http://purl.org/dc/elements/1.1/"
   xmlns:cc="http://creativecommons.org/ns#"
   xmlns:rdf="http://www.w3.org/1999/02/22-rdf-syntax-ns#"
   xmlns:svg="http://www.w3.org/2000/svg"
   xmlns="http://www.w3.org/2000/svg"
   xmlns:sodipodi="http://sodipodi.sourceforge.net/DTD/sodipodi-0.dtd"
   xmlns:inkscape="http://www.inkscape.org/namespaces/inkscape"
   version="1.1"
   id="svg2"
   xml:space="preserve"
   width="307.18933"
   height="291.32666"
   viewBox="0 0 307.18933 291.32665"
   sodipodi:docname="sun-cloud-light-rain.svg"
   inkscape:version="0.92.5 (2060ec1f9f, 2020-04-08)"><metadata
     id="metadata8"><rdf:RDF><cc:Work
         rdf:about=""><dc:format>image/svg+xml</dc:format><dc:type
           rdf:resource="http://purl.org/dc/dcmitype/StillImage" /><dc:title /></cc:Work></rdf:RDF></metadata><defs
     id="defs6" /><sodipodi:namedview
     pagecolor="#ffffff"
     bordercolor="#666666"
     borderopacity="1"
     objecttolerance="10"
     gridtolerance="10"
     guidetolerance="10"
     inkscape:pageopacity="0"
     inkscape:pageshadow="2"
     inkscape:window-width="1920"
     inkscape:window-height="1051"
     id="namedview4"
     showgrid="false"
     inkscape:zoom="0.417193"
     inkscape:cx="137.09689"
     inkscape:cy="199.44169"
     inkscape:window-x="0"
     inkscape:window-y="-37"
     inkscape:window-maximized="1"
     inkscape:current-layer="g12" /><g
     id="g10"
     inkscape:groupmode="layer"
     inkscape:label="ink_ext_XXXXXX"
     transform="matrix(1.3333333,0,0,-1.3333333,-442.55599,762.03998)"><g
       id="g12"
       transform="scale(0.1)"><path
         d="m 3736.1,5021.39 c 0,-69.55 25.67,-135.19 71.54,-185.76 47.49,35.73 101.58,62.39 159.15,77.91 19.97,127.09 82.51,243.7 178.38,331.34 4.5,4.12 9.08,8.12 13.69,12.08 -43.35,26.94 -93.41,41.41 -145.78,41.41 -152.73,0 -276.98,-124.25 -276.98,-276.98"
         style="fill:#dec60f;fill-opacity:1;fill-rule:nonzero;stroke:none"
         id="path16"
         inkscape:connector-curvature="0" /><path
         d="m 5483.88,4745.73 c -9.51,7.24 -16.44,17.35 -19.76,28.83 -50.93,176.04 -214.64,298.99 -398.11,298.99 -33.8,0 -67.47,-4.1 -100.1,-12.19 -22.51,-5.58 -46.12,3.38 -59.28,22.48 -85.62,124.39 -226.73,198.65 -377.47,198.65 -114.62,0 -224.3,-42.56 -308.83,-119.83 -84,-76.79 -136.2,-181.18 -146.98,-293.95 -1.86,-19.5 -13.83,-36.59 -31.52,-45 -5.51,-2.62 -11.06,-5.48 -16.5,-8.48 -4.65,-2.57 -9.64,-4.46 -14.82,-5.62 -77.28,-17.24 -147.48,-60.68 -197.66,-122.3 -51.57,-63.31 -78.83,-139.95 -78.83,-221.62 0,-194.36 159.03,-352.49 354.5,-352.49 h 1180.07 c 195.47,0 354.5,158.13 354.5,352.49 0,110.6 -50.74,212.67 -139.21,280.04"
         style="fill:#61c9e7;fill-opacity:1;fill-rule:nonzero;stroke:none"
         id="path48"
         inkscape:connector-curvature="0" /><path
         d="m 4245.67,3530.35 c 5.4,0 10.9,0.79 16.34,2.46 29.41,9.01 45.94,40.16 36.93,69.57 l -67.06,218.82 c -9.02,29.42 -40.17,45.95 -69.57,36.94 -29.41,-9.02 -45.95,-40.16 -36.94,-69.57 l 67.06,-218.83 c 7.35,-23.98 29.4,-39.39 53.24,-39.39"
         style="fill:#61c9e7;fill-opacity:1;fill-rule:nonzero;stroke:none"
         id="path78"
         inkscape:connector-curvature="0" /><path
         d="m 4712.07,3530.35 c 5.4,0 10.9,0.79 16.33,2.46 29.41,9.01 45.95,40.16 36.94,69.57 l -67.06,218.82 c -9.02,29.42 -40.17,45.95 -69.58,36.94 -29.41,-9.02 -45.94,-40.16 -36.93,-69.57 l 67.06,-218.83 c 7.35,-23.98 29.4,-39.39 53.24,-39.39"
         style="fill:#61c9e7;fill-opacity:1;fill-rule:nonzero;stroke:none"
         id="path80"
         inkscape:connector-curvature="0" /><path
         d="m 5178.47,3530.35 c 5.4,0 10.9,0.79 16.33,2.46 29.41,9.01 45.95,40.16 36.94,69.57 l -67.07,218.82 c -9.01,29.42 -40.16,45.95 -69.57,36.94 -29.41,-9.02 -45.94,-40.16 -36.93,-69.57 l 67.06,-218.83 c 7.35,-23.98 29.4,-39.39 53.24,-39.39"
         style="fill:#61c9e7;fill-opacity:1;fill-rule:nonzero;stroke:none"
         id="path82"
         inkscape:connector-curvature="0" /><path
         d="m 3957.38,5659.6 v -156.71 c 0,-30.76 24.94,-55.69 55.7,-55.69 30.76,0 55.69,24.93 55.69,55.69 v 156.71 c 0,30.76 -24.93,55.7 -55.69,55.7 -30.76,0 -55.7,-24.94 -55.7,-55.7"
         style="fill:#dec60f;fill-opacity:1;fill-rule:nonzero;stroke:none"
         id="path84"
         inkscape:connector-curvature="0" /><path
         d="m 3772.38,5382.68 c 9.44,0 19.02,2.4 27.79,7.47 26.64,15.38 35.77,49.44 20.39,76.08 l -78.35,135.72 c -15.39,26.64 -49.45,35.77 -76.09,20.39 -26.64,-15.38 -35.76,-49.45 -20.39,-76.09 l 78.36,-135.71 c 10.31,-17.87 29.04,-27.86 48.29,-27.86"
         style="fill:#dec60f;fill-opacity:1;fill-rule:nonzero;stroke:none"
         id="path86"
         inkscape:connector-curvature="0" /><path
         d="m 3623.93,5310.38 -135.71,78.35 c -26.64,15.38 -60.71,6.26 -76.09,-20.38 -15.38,-26.64 -6.25,-60.71 20.39,-76.09 l 135.71,-78.35 c 8.77,-5.07 18.35,-7.47 27.8,-7.47 19.25,0 37.97,9.99 48.29,27.85 15.38,26.64 6.25,60.7 -20.39,76.09"
         style="fill:#dec60f;fill-opacity:1;fill-rule:nonzero;stroke:none"
         id="path88"
         inkscape:connector-curvature="0" /><path
         d="m 3587.27,5021.39 c 0,30.76 -24.94,55.7 -55.7,55.7 h -156.71 c -30.76,0 -55.69,-24.94 -55.69,-55.7 0,-30.76 24.93,-55.7 55.69,-55.7 h 156.71 c 30.76,0 55.7,24.94 55.7,55.7"
         style="fill:#dec60f;fill-opacity:1;fill-rule:nonzero;stroke:none"
         id="path90"
         inkscape:connector-curvature="0" /><path
         d="m 3623.93,4732.4 c 26.64,15.38 35.77,49.44 20.39,76.08 -15.38,26.64 -49.45,35.78 -76.09,20.39 l -135.71,-78.35 c -26.64,-15.38 -35.77,-49.44 -20.39,-76.08 10.32,-17.87 29.04,-27.86 48.29,-27.86 9.45,0 19.03,2.4 27.8,7.47 l 135.71,78.35"
         style="fill:#dec60f;fill-opacity:1;fill-rule:nonzero;stroke:none"
         id="path92"
         inkscape:connector-curvature="0" /><path
         d="m 4225.98,5390.15 c 8.78,-5.07 18.35,-7.47 27.8,-7.47 19.25,0 37.97,9.99 48.29,27.86 l 78.35,135.71 c 15.38,26.64 6.25,60.71 -20.39,76.09 -26.64,15.37 -60.7,6.25 -76.08,-20.39 l -78.36,-135.72 c -15.37,-26.64 -6.25,-60.7 20.39,-76.08"
         style="fill:#dec60f;fill-opacity:1;fill-rule:nonzero;stroke:none"
         id="path94"
         inkscape:connector-curvature="0" /></g></g></svg>