<?xml version="1.0" encoding="UTF-8" standalone="no"?>
<!-- Created with Inkscape (http://www.inkscape.org/) -->

<svg
   xmlns:dc="http://purl.org/dc/elements/1.1/"
   xmlns:cc="http://creativecommons.org/ns#"
   xmlns:rdf="http://www.w3.org/1999/02/22-rdf-syntax-ns#"
   xmlns:svg="http://www.w3.org/2000/svg"
   xmlns="http://www.w3.org/2000/svg"
   xmlns:sodipodi="http://sodipodi.sourceforge.net/DTD/sodipodi-0.dtd"
   xmlns:inkscape="http://www.inkscape.org/namespaces/inkscape"
   version="1.1"
   id="svg2"
   xml:space="preserve"
   width="280.5"
   height="280.49866"
   viewBox="0 0 280.5 280.49865"
   sodipodi:docname="sun-small-cloud.svg"
   inkscape:version="0.92.5 (2060ec1f9f, 2020-04-08)"><metadata
     id="metadata8"><rdf:RDF><cc:Work
         rdf:about=""><dc:format>image/svg+xml</dc:format><dc:type
           rdf:resource="http://purl.org/dc/dcmitype/StillImage" /><dc:title /></cc:Work></rdf:RDF></metadata><defs
     id="defs6" /><sodipodi:namedview
     pagecolor="#ffffff"
     bordercolor="#666666"
     borderopacity="1"
     objecttolerance="10"
     gridtolerance="10"
     guidetolerance="10"
     inkscape:pageopacity="0"
     inkscape:pageshadow="2"
     inkscape:window-width="1920"
     inkscape:window-height="1051"
     id="namedview4"
     showgrid="false"
     inkscape:zoom="1.668772"
     inkscape:cx="-4.1075399"
     inkscape:cy="108.35142"
     inkscape:window-x="0"
     inkscape:window-y="-37"
     inkscape:window-maximized="1"
     inkscape:current-layer="g12" /><g
     id="g10"
     inkscape:groupmode="layer"
     inkscape:label="ink_ext_XXXXXX"
     transform="matrix(1.3333333,0,0,-1.3333333,-844.09598,756.62665)"><g
       id="g12"
       transform="scale(0.1)"><path
         d="m 8258.475,4026.8249 c -5.5468,4.1996 -9.5888,10.0905 -11.5253,16.798 -29.7056,102.6543 -125.1916,174.3957 -232.2029,174.3957 -19.7143,0 -39.3528,-2.3914 -58.3789,-7.1159 -13.1408,-3.2662 -26.9059,1.9832 -34.5815,13.1235 -49.9391,72.558 -132.2433,115.8361 -220.1645,115.8361 -66.8536,0 -130.8259,-24.7887 -180.1292,-69.8749 -48.9941,-44.7947 -79.4404,-105.6873 -85.7279,-171.4795 -1.0849,-11.3736 -8.0666,-21.289 -18.3845,-26.2468 -3.2138,-1.5165 -6.451,-3.1496 -9.6239,-4.8993 -2.7122,-1.5166 -5.6226,-2.6248 -8.644,-3.2664 -45.0746,-10.0905 -86.0196,-35.404 -115.2878,-71.3331 -30.0788,-36.9788 -45.9786,-81.6568 -45.9786,-129.3094 0,-113.3514 92.7564,-205.5828 206.7668,-205.5828 h 688.2915 c 114.0104,0 206.7668,92.2314 206.7668,205.5828 0,64.509 -29.5948,124.06 -81.1961,163.372"
         style="fill:#61c9e7;fill-opacity:1;fill-rule:nonzero;stroke:none;stroke-width:194.83500671;stroke-linejoin:round;stroke-miterlimit:4;stroke-dasharray:none;stroke-opacity:1;paint-order:stroke fill markers"
         id="path42"
         inkscape:connector-curvature="0" /><path
         style="fill:#dec60f;fill-opacity:1;fill-rule:nonzero;stroke:none;stroke-width:0.99999994"
         d="m 7382.3987,5144.3621 c -288.5799,0 -523.374,-234.7986 -523.374,-523.3887 0,-250.0096 176.252,-459.5042 410.9912,-511.084 23.1184,16.1168 48.4272,28.9935 75.2344,38.2031 15.9036,73.4869 54.2714,140.6891 110.3028,191.9238 l 0.015,0.015 c 67.1478,61.3974 154.9317,95.3907 245.8593,95.3907 54.524,0 107.4644,-12.3409 155.4346,-34.9951 31.3039,67.0734 48.8965,141.775 48.8965,220.5468 0,288.5901 -234.7694,523.3887 -523.3594,523.3887 z m -6.7822,-985.8545 -0.63,-0.2933 c -0.129,-0.06 -0.2378,-0.1425 -0.366,-0.2055 0.3172,0.1508 0.681,0.3495 0.9961,0.498 z"
         id="path44-3"
         inkscape:connector-curvature="0"
         sodipodi:nodetypes="ssccccscssscss" /><path
         d="m 7326.9,5383.07 c 0,-30.76 24.94,-55.69 55.69,-55.69 30.76,0 55.7,24.93 55.7,55.69 v 235.94 c 0,30.75 -24.94,55.69 -55.7,55.69 -30.75,0 -55.69,-24.94 -55.69,-55.69 v -235.94"
         style="fill:#dec60f;fill-opacity:1;fill-rule:nonzero;stroke:none"
         id="path108"
         inkscape:connector-curvature="0" /><path
         d="m 7002.52,5225.51 c 9.46,0 19.03,2.41 27.8,7.47 26.64,15.38 35.77,49.45 20.39,76.09 l -117.97,204.32 c -15.38,26.64 -49.45,35.77 -76.08,20.39 -26.64,-15.38 -35.77,-49.44 -20.39,-76.08 l 117.97,-204.33 c 10.31,-17.87 29.03,-27.86 48.28,-27.86"
         style="fill:#dec60f;fill-opacity:1;fill-rule:nonzero;stroke:none"
         id="path112"
         inkscape:connector-curvature="0" /><path
         d="m 6471.64,5148.77 c -15.38,-26.64 -6.25,-60.71 20.39,-76.09 l 204.33,-117.96 c 8.77,-5.07 18.35,-7.47 27.8,-7.47 19.24,0 37.97,9.99 48.28,27.85 15.38,26.64 6.25,60.71 -20.38,76.09 l -204.33,117.96 c -26.64,15.38 -60.71,6.26 -76.09,-20.38"
         style="fill:#dec60f;fill-opacity:1;fill-rule:nonzero;stroke:none"
         id="path116"
         inkscape:connector-curvature="0" /><path
         d="m 6678.05,4622.83 c 0,30.76 -24.94,55.7 -55.7,55.7 h -235.93 c -30.76,0 -55.7,-24.94 -55.7,-55.7 0,-30.76 24.94,-55.7 55.7,-55.7 h 235.93 c 30.76,0 55.7,24.94 55.7,55.7"
         style="fill:#dec60f;fill-opacity:1;fill-rule:nonzero;stroke:none"
         id="path120"
         inkscape:connector-curvature="0" /><path
         d="m 8378.77,4678.53 h -235.94 c -30.76,0 -55.7,-24.94 -55.7,-55.7 0,-30.76 24.94,-55.7 55.7,-55.7 h 235.94 c 30.76,0 55.7,24.94 55.7,55.7 0,30.76 -24.94,55.7 -55.7,55.7"
         style="fill:#dec60f;fill-opacity:1;fill-rule:nonzero;stroke:none"
         id="path122"
         inkscape:connector-curvature="0" /><path
         d="m 6696.36,4290.95 -204.33,-117.97 c -26.64,-15.38 -35.77,-49.45 -20.39,-76.08 10.32,-17.87 29.04,-27.86 48.29,-27.86 9.45,0 19.03,2.41 27.8,7.47 l 204.33,117.97 c 26.63,15.38 35.76,49.45 20.38,76.08 -15.38,26.65 -49.45,35.77 -76.08,20.39"
         style="fill:#dec60f;fill-opacity:1;fill-rule:nonzero;stroke:none"
         id="path124"
         inkscape:connector-curvature="0" /><path
         d="m 8217.46,5169.15 -204.33,-117.96 c -26.64,-15.38 -35.77,-49.45 -20.39,-76.09 10.32,-17.86 29.04,-27.85 48.29,-27.85 9.45,0 19.03,2.4 27.8,7.47 l 204.32,117.96 c 26.64,15.38 35.77,49.45 20.39,76.09 -15.38,26.64 -49.45,35.76 -76.08,20.38"
         style="fill:#dec60f;fill-opacity:1;fill-rule:nonzero;stroke:none"
         id="path126"
         inkscape:connector-curvature="0" /><path
         d="m 6954.24,3992.3 -117.97,-204.33 c -15.38,-26.64 -6.25,-60.71 20.39,-76.08 8.77,-5.07 18.35,-7.47 27.8,-7.47 19.24,0 37.97,9.99 48.28,27.85 l 117.97,204.33 c 15.38,26.64 6.25,60.71 -20.39,76.08 -26.63,15.38 -60.7,6.26 -76.08,-20.38"
         style="fill:#dec60f;fill-opacity:1;fill-rule:nonzero;stroke:none"
         id="path128"
         inkscape:connector-curvature="0" /><path
         d="m 7734.86,5232.98 c 8.77,-5.06 18.35,-7.47 27.8,-7.47 19.25,0 37.97,9.99 48.29,27.86 l 117.97,204.33 c 15.38,26.64 6.25,60.7 -20.39,76.08 -26.63,15.37 -60.71,6.25 -76.08,-20.39 l -117.98,-204.32 c -15.37,-26.64 -6.25,-60.7 20.39,-76.09"
         style="fill:#dec60f;fill-opacity:1;fill-rule:nonzero;stroke:none"
         id="path130"
         inkscape:connector-curvature="0" /></g></g></svg>