<?xml version="1.0" encoding="UTF-8" standalone="no"?>
<!-- Created with Inkscape (http://www.inkscape.org/) -->

<svg
   xmlns:dc="http://purl.org/dc/elements/1.1/"
   xmlns:cc="http://creativecommons.org/ns#"
   xmlns:rdf="http://www.w3.org/1999/02/22-rdf-syntax-ns#"
   xmlns:svg="http://www.w3.org/2000/svg"
   xmlns="http://www.w3.org/2000/svg"
   xmlns:sodipodi="http://sodipodi.sourceforge.net/DTD/sodipodi-0.dtd"
   xmlns:inkscape="http://www.inkscape.org/namespaces/inkscape"
   version="1.1"
   id="svg2"
   xml:space="preserve"
   width="307.18933"
   height="213.60933"
   viewBox="0 0 307.18933 213.60933"
   sodipodi:docname="sun-cloud.svg"
   inkscape:version="0.92.5 (2060ec1f9f, 2020-04-08)"><metadata
     id="metadata8"><rdf:RDF><cc:Work
         rdf:about=""><dc:format>image/svg+xml</dc:format><dc:type
           rdf:resource="http://purl.org/dc/dcmitype/StillImage" /><dc:title /></cc:Work></rdf:RDF></metadata><defs
     id="defs6" /><sodipodi:namedview
     pagecolor="#ffffff"
     bordercolor="#666666"
     borderopacity="1"
     objecttolerance="10"
     gridtolerance="10"
     guidetolerance="10"
     inkscape:pageopacity="0"
     inkscape:pageshadow="2"
     inkscape:window-width="1920"
     inkscape:window-height="1051"
     id="namedview4"
     showgrid="false"
     inkscape:zoom="0.417193"
     inkscape:cx="197.0212"
     inkscape:cy="-435.65403"
     inkscape:window-x="0"
     inkscape:window-y="-37"
     inkscape:window-maximized="1"
     inkscape:current-layer="g12" /><g
     id="g10"
     inkscape:groupmode="layer"
     inkscape:label="ink_ext_XXXXXX"
     transform="matrix(1.3333333,0,0,-1.3333333,-442.55599,1513.5733)"><g
       id="g12"
       transform="scale(0.1)"><path
         d="m 5483.88,10382.3 c -9.51,7.2 -16.44,17.3 -19.76,28.8 -50.93,176 -214.64,299 -398.11,299 -33.8,0 -67.47,-4.1 -100.09,-12.2 -22.53,-5.6 -46.13,3.4 -59.29,22.5 -85.62,124.4 -226.73,198.6 -377.47,198.6 -114.62,0 -224.3,-42.5 -308.83,-119.8 -84,-76.8 -136.2,-181.2 -146.98,-294 -1.86,-19.5 -13.83,-36.5 -31.52,-45 -5.51,-2.6 -11.06,-5.4 -16.5,-8.4 -4.65,-2.6 -9.64,-4.5 -14.82,-5.6 -77.28,-17.3 -147.48,-60.7 -197.66,-122.3 -51.57,-63.4 -78.83,-140 -78.83,-221.7 0,-194.34 159.03,-352.47 354.5,-352.47 h 1180.07 c 195.47,0 354.5,158.13 354.5,352.47 0,110.6 -50.74,212.7 -139.21,280.1"
         style="fill:#61c9e7;fill-opacity:1;fill-rule:nonzero;stroke:none"
         id="path42"
         inkscape:connector-curvature="0" /><path
         d="m 3736.1,10657.9 c 0,-69.5 25.67,-135.2 71.54,-185.7 47.48,35.7 101.58,62.4 159.15,77.9 19.97,127.1 82.51,243.7 178.38,331.3 4.5,4.1 9.08,8.1 13.7,12.1 -43.36,26.9 -93.42,41.4 -145.79,41.4 -152.73,0 -276.98,-124.2 -276.98,-277"
         style="fill:#dec60f;fill-opacity:1;fill-rule:nonzero;stroke:none"
         id="path46"
         inkscape:connector-curvature="0" /><path
         d="m 4013.08,11083.7 c 30.76,0 55.69,25 55.69,55.7 v 156.7 c 0,30.8 -24.93,55.7 -55.69,55.7 -30.76,0 -55.7,-24.9 -55.7,-55.7 v -156.7 c 0,-30.7 24.94,-55.7 55.7,-55.7"
         style="fill:#dec60f;fill-opacity:1;fill-rule:nonzero;stroke:none"
         id="path66"
         inkscape:connector-curvature="0" /><path
         d="m 3724.09,11047.1 c 10.31,-17.9 29.04,-27.9 48.29,-27.9 9.44,0 19.02,2.4 27.79,7.5 26.64,15.4 35.77,49.4 20.39,76.1 l -78.35,135.7 c -15.39,26.6 -49.45,35.7 -76.09,20.4 -26.64,-15.4 -35.76,-49.5 -20.39,-76.1 l 78.36,-135.7"
         style="fill:#dec60f;fill-opacity:1;fill-rule:nonzero;stroke:none"
         id="path68"
         inkscape:connector-curvature="0" /><path
         d="m 3432.52,10928.8 135.71,-78.4 c 8.77,-5 18.35,-7.4 27.8,-7.4 19.25,0 37.97,10 48.29,27.8 15.38,26.7 6.25,60.7 -20.39,76.1 l -135.71,78.4 c -26.64,15.3 -60.71,6.2 -76.09,-20.4 -15.38,-26.7 -6.25,-60.7 20.39,-76.1"
         style="fill:#dec60f;fill-opacity:1;fill-rule:nonzero;stroke:none"
         id="path70"
         inkscape:connector-curvature="0" /><path
         d="m 3374.86,10602.2 h 156.71 c 30.76,0 55.7,25 55.7,55.7 0,30.8 -24.94,55.7 -55.7,55.7 h -156.71 c -30.76,0 -55.69,-24.9 -55.69,-55.7 0,-30.7 24.93,-55.7 55.69,-55.7"
         style="fill:#dec60f;fill-opacity:1;fill-rule:nonzero;stroke:none"
         id="path72"
         inkscape:connector-curvature="0" /><path
         d="m 3644.32,10445 c -15.39,26.7 -49.45,35.8 -76.09,20.4 l -135.71,-78.3 c -26.64,-15.4 -35.77,-49.5 -20.39,-76.1 10.32,-17.9 29.04,-27.9 48.29,-27.9 9.45,0 19.03,2.4 27.8,7.5 l 135.71,78.3 c 26.64,15.4 35.77,49.5 20.39,76.1"
         style="fill:#dec60f;fill-opacity:1;fill-rule:nonzero;stroke:none"
         id="path74"
         inkscape:connector-curvature="0" /><path
         d="m 4225.98,11026.7 c 8.78,-5.1 18.35,-7.5 27.8,-7.5 19.25,0 37.97,10 48.29,27.9 l 78.35,135.7 c 15.38,26.6 6.25,60.7 -20.39,76.1 -26.64,15.3 -60.7,6.2 -76.08,-20.4 l -78.36,-135.7 c -15.37,-26.7 -6.25,-60.7 20.39,-76.1"
         style="fill:#dec60f;fill-opacity:1;fill-rule:nonzero;stroke:none"
         id="path76"
         inkscape:connector-curvature="0" /></g></g></svg>