<?xml version="1.0" encoding="UTF-8" standalone="no"?>
<!-- Created with Inkscape (http://www.inkscape.org/) -->

<svg
   xmlns:dc="http://purl.org/dc/elements/1.1/"
   xmlns:cc="http://creativecommons.org/ns#"
   xmlns:rdf="http://www.w3.org/1999/02/22-rdf-syntax-ns#"
   xmlns:svg="http://www.w3.org/2000/svg"
   xmlns="http://www.w3.org/2000/svg"
   xmlns:sodipodi="http://sodipodi.sourceforge.net/DTD/sodipodi-0.dtd"
   xmlns:inkscape="http://www.inkscape.org/namespaces/inkscape"
   version="1.1"
   id="svg2"
   xml:space="preserve"
   width="251.87599"
   height="229.03867"
   viewBox="0 0 251.87599 229.03866"
   sodipodi:docname="thunder.svg"
   inkscape:version="0.92.5 (2060ec1f9f, 2020-04-08)"><metadata
     id="metadata8"><rdf:RDF><cc:Work
         rdf:about=""><dc:format>image/svg+xml</dc:format><dc:type
           rdf:resource="http://purl.org/dc/dcmitype/StillImage" /><dc:title /></cc:Work></rdf:RDF></metadata><defs
     id="defs6" /><sodipodi:namedview
     pagecolor="#ffffff"
     bordercolor="#666666"
     borderopacity="1"
     objecttolerance="10"
     gridtolerance="10"
     guidetolerance="10"
     inkscape:pageopacity="0"
     inkscape:pageshadow="2"
     inkscape:window-width="1920"
     inkscape:window-height="1051"
     id="namedview4"
     showgrid="false"
     inkscape:zoom="0.417193"
     inkscape:cx="-599.60012"
     inkscape:cy="-550.857"
     inkscape:window-x="0"
     inkscape:window-y="-37"
     inkscape:window-maximized="1"
     inkscape:current-layer="g12" /><g
     id="g10"
     inkscape:groupmode="layer"
     inkscape:label="ink_ext_XXXXXX"
     transform="matrix(1.3333333,0,0,-1.3333333,-1239.1773,1469.2266)"><g
       id="g12"
       transform="scale(0.1)"><path
         d="m 9860.09,9964.64 247.81,729.56 h 313.1 l -182.6,-492.7 h 378.2 l -230.5,-351.57 h 442.3 c 195.5,0 354.5,158.17 354.5,352.47 0,110.6 -50.7,212.7 -139.2,280.1 -9.5,7.2 -16.4,17.3 -19.8,28.8 -50.9,176 -214.6,299 -398.1,299 -33.8,0 -67.5,-4.1 -100.1,-12.2 -22.5,-5.6 -46.1,3.4 -59.3,22.5 -85.6,124.4 -226.7,198.6 -377.4,198.6 -114.65,0 -224.33,-42.5 -308.86,-119.8 -84,-76.8 -136.2,-181.2 -146.97,-294 -1.87,-19.5 -13.85,-36.6 -31.55,-45 -5.47,-2.6 -11.02,-5.4 -16.48,-8.4 -4.65,-2.6 -9.64,-4.5 -14.82,-5.7 -77.28,-17.2 -147.48,-60.6 -197.66,-122.2 -51.57,-63.4 -78.83,-140 -78.83,-221.7 0,-194.3 159.03,-352.47 354.5,-352.47 h 515.57 l 28.8,114.71 h -332.61"
         style="fill:#61c9e7;fill-opacity:1;fill-rule:nonzero;stroke:none"
         id="path38"
         inkscape:connector-curvature="0" /><path
         d="m 10238.4,10201.5 182.6,492.7 h -313.1 l -247.81,-729.56 h 332.61 l -28.8,-114.71 -27.9,-111.39 -109.6,-437.13 286.6,437.13 73.1,111.39 230.5,351.57 h -378.2"
         style="fill:#dec60f;fill-opacity:1;fill-rule:nonzero;stroke:none"
         id="path96"
         inkscape:connector-curvature="0" /></g></g></svg>