<?xml version="1.0" encoding="UTF-8" standalone="no"?>
<!-- Created with Inkscape (http://www.inkscape.org/) -->

<svg
   xmlns:dc="http://purl.org/dc/elements/1.1/"
   xmlns:cc="http://creativecommons.org/ns#"
   xmlns:rdf="http://www.w3.org/1999/02/22-rdf-syntax-ns#"
   xmlns:svg="http://www.w3.org/2000/svg"
   xmlns="http://www.w3.org/2000/svg"
   xmlns:sodipodi="http://sodipodi.sourceforge.net/DTD/sodipodi-0.dtd"
   xmlns:inkscape="http://www.inkscape.org/namespaces/inkscape"
   version="1.1"
   id="svg2"
   xml:space="preserve"
   width="245.79866"
   height="298.36679"
   viewBox="0 0 245.79867 298.3668"
   sodipodi:docname="umbrella.svg"
   inkscape:version="0.92.5 (2060ec1f9f, 2020-04-08)"><metadata
     id="metadata8"><rdf:RDF><cc:Work
         rdf:about=""><dc:format>image/svg+xml</dc:format><dc:type
           rdf:resource="http://purl.org/dc/dcmitype/StillImage" /><dc:title /></cc:Work></rdf:RDF></metadata><defs
     id="defs6" /><sodipodi:namedview
     pagecolor="#ffffff"
     bordercolor="#666666"
     borderopacity="1"
     objecttolerance="10"
     gridtolerance="10"
     guidetolerance="10"
     inkscape:pageopacity="0"
     inkscape:pageshadow="2"
     inkscape:window-width="1920"
     inkscape:window-height="1051"
     id="namedview4"
     showgrid="false"
     inkscape:zoom="0.295"
     inkscape:cx="-894.59712"
     inkscape:cy="1155.2488"
     inkscape:window-x="0"
     inkscape:window-y="-37"
     inkscape:window-maximized="1"
     inkscape:current-layer="g12" /><g
     id="g10"
     inkscape:groupmode="layer"
     inkscape:label="ink_ext_XXXXXX"
     transform="matrix(1.3333333,0,0,-1.3333333,-1242.1746,384.79332)"><g
       id="g12"
       transform="scale(0.1)"><path
         d="m 9316.31,1889.5 c 66.79,41.5 160.38,83.4 265.56,83.4 174.06,0 260.44,-59.6 332.03,-126.5 68.32,61.2 158.1,126.5 329.8,126.5 171,0 272.1,-68.1 332,-123.4 68.4,65.3 162.1,123.4 329.7,123.4 102.1,0 190.6,-39.4 254.4,-79.7 -67,400.13 -454.7,707.97 -921.4,707.97 -468.24,0 -856.89,-309.75 -922.09,-711.67"
         style="fill:#4492a8;fill-opacity:1;fill-rule:nonzero;stroke:none"
         id="path34"
         inkscape:connector-curvature="0" /><path
         d="m 10182.7,1858 v -854.7 c 0,-92.402 28.7,-179.8 80.9,-246.198 55.2,-70.204 129.9,-108.903 210.3,-108.903 80.3,0 155,38.699 210.3,108.903 52.2,66.398 80.9,153.796 80.9,246.198 0,30.8 -24.9,55.7 -55.7,55.7 -30.8,0 -55.7,-24.9 -55.7,-55.7 0,-134.398 -80.7,-243.698 -179.8,-243.698 -99.2,0 -179.8,109.3 -179.8,243.698 V 1859 c -15.9,1.6 -32.6,2.5 -50.4,2.5 -22.3,0 -42.4,-1.2 -61,-3.5"
         style="fill:#4492a8;fill-opacity:1;fill-rule:nonzero;stroke:none"
         id="path170"
         inkscape:connector-curvature="0" /><path
         d="m 10294.1,2711.21 v 119.05 c 0,30.75 -25,55.69 -55.7,55.69 -30.8,0 -55.7,-24.94 -55.7,-55.69 v -119.05 c 18.5,0.88 37,1.35 55.7,1.35 18.6,0 37.2,-0.47 55.7,-1.35"
         style="fill:#4492a8;fill-opacity:1;fill-rule:nonzero;stroke:none"
         id="path172"
         inkscape:connector-curvature="0" /></g></g></svg>